
      <svg data-logo="logo" xmlns="http://www.w3.org/2000/svg" viewBox="0 0 197.57000732421875 41">
        <g id="logogram" transform="
    translate(0, 0.5)
    rotate(0 23 20)
    
  "><path d="M0 33L4.60606 25H12.2448C17.2569 25 21.4947 28.7103 22.1571 33.6784L23 40H13L11.5585 36.6365C10.613 34.4304 8.44379 33 6.04362 33H0Z" fill="#0047C1"/><path d="M46 33L41.3939 25H33.7552C28.7431 25 24.5053 28.7103 23.8429 33.6784L23 40H33L34.4415 36.6365C35.387 34.4304 37.5562 33 39.9564 33H46Z" fill="#0047C1"/><path d="M4.60606 25L18.9999 0H23L22.6032 9.52405C22.2608 17.7406 15.7455 24.3596 7.53537 24.8316L4.60606 25Z" fill="#0047C1"/><path d="M41.3939 25L27.0001 0H23L23.3968 9.52405C23.7392 17.7406 30.2545 24.3596 38.4646 24.8316L41.3939 25Z" fill="#0047C1"/></g>
        <g id="logotype" transform="translate(52, 5.4404296875)"><path fill="#111111" d="M12.60 28L6.84 28L15.54 2.54L22.37 2.54L31.29 28L25.50 28L21.42 15.71Q20.68 13.34 19.92 10.51Q19.16 7.68 18.32 4.33L18.32 4.33L19.45 4.33Q18.65 7.70 17.94 10.54Q17.23 13.39 16.53 15.71L16.53 15.71L12.60 28ZM25.86 22.09L12.27 22.09L12.27 18.00L25.86 18.00L25.86 22.09ZM38.62 28.24L38.62 28.24Q36.64 28.24 35.15 27.38Q33.67 26.51 32.85 24.90Q32.04 23.28 32.04 21.04L32.04 21.04L32.04 8.89L37.17 8.89L37.17 20.16Q37.17 21.93 38.09 22.94Q39.02 23.95 40.62 23.95L40.62 23.95Q41.72 23.95 42.55 23.48Q43.39 23.01 43.86 22.11Q44.33 21.22 44.33 19.95L44.33 19.95L44.33 8.89L49.46 8.89L49.46 28L44.62 28L44.55 23.23L44.84 23.23Q44.09 25.64 42.54 26.94Q41.00 28.24 38.62 28.24ZM49.71 8.89L61.04 8.89L61.04 12.81L49.71 12.81L49.71 8.89ZM52.34 22.86L52.34 4.35L57.47 4.35L57.47 22.41Q57.47 23.32 57.87 23.75Q58.27 24.19 59.21 24.19L59.21 24.19Q59.50 24.19 60.03 24.11Q60.56 24.04 60.84 23.97L60.84 23.97L61.57 27.81Q60.72 28.07 59.87 28.17Q59.03 28.27 58.26 28.27L58.26 28.27Q55.39 28.27 53.86 26.87Q52.34 25.47 52.34 22.86L52.34 22.86ZM70.64 28.38L70.64 28.38Q67.77 28.38 65.67 27.14Q63.57 25.90 62.43 23.68Q61.30 21.47 61.30 18.53L61.30 18.53Q61.30 15.56 62.43 13.35Q63.57 11.13 65.67 9.89Q67.77 8.65 70.64 8.65L70.64 8.65Q73.53 8.65 75.63 9.89Q77.72 11.13 78.86 13.35Q79.99 15.56 79.99 18.53L79.99 18.53Q79.99 21.47 78.86 23.68Q77.72 25.90 75.63 27.14Q73.53 28.38 70.64 28.38ZM70.64 24.34L70.64 24.34Q72.01 24.34 72.93 23.58Q73.86 22.82 74.32 21.50Q74.78 20.17 74.78 18.52L74.78 18.52Q74.78 16.82 74.32 15.51Q73.86 14.19 72.93 13.44Q72.01 12.69 70.64 12.69L70.64 12.69Q69.28 12.69 68.36 13.44Q67.45 14.19 66.99 15.51Q66.53 16.82 66.53 18.52L66.53 18.52Q66.53 20.17 66.99 21.50Q67.45 22.82 68.36 23.58Q69.28 24.34 70.64 24.34ZM81.49 15.49L93.08 15.49L93.08 19.57L81.49 19.57L81.49 15.49ZM109.06 24.48L105.08 19.25L109.54 19.25L111.90 22.27L114.00 24.74L118.25 30.12L113.38 30.12L110.48 26.50L109.06 24.48ZM106.68 28.34L106.68 28.34Q103.32 28.34 100.62 26.80Q97.93 25.27 96.37 22.34Q94.81 19.42 94.81 15.29L94.81 15.29Q94.81 11.13 96.37 8.20Q97.93 5.27 100.62 3.73Q103.32 2.19 106.68 2.19L106.68 2.19Q110.07 2.19 112.75 3.73Q115.43 5.27 117.00 8.20Q118.56 11.13 118.56 15.29L118.56 15.29Q118.56 19.42 117.00 22.34Q115.43 25.27 112.75 26.80Q110.07 28.34 106.68 28.34ZM106.68 23.71L106.68 23.71Q108.67 23.71 110.14 22.74Q111.62 21.78 112.44 19.89Q113.26 18.00 113.26 15.29L113.26 15.29Q113.26 12.53 112.44 10.65Q111.62 8.76 110.14 7.79Q108.67 6.83 106.68 6.83L106.68 6.83Q104.72 6.83 103.23 7.80Q101.74 8.77 100.92 10.66Q100.10 12.55 100.10 15.29L100.10 15.29Q100.10 18.00 100.92 19.88Q101.74 21.76 103.23 22.74Q104.72 23.71 106.68 23.71ZM124.71 28L118.95 28L127.65 2.54L134.49 2.54L143.41 28L137.61 28L133.53 15.71Q132.79 13.34 132.03 10.51Q131.27 7.68 130.44 4.33L130.44 4.33L131.56 4.33Q130.76 7.70 130.05 10.54Q129.34 13.39 128.64 15.71L128.64 15.71L124.71 28ZM137.97 22.09L124.39 22.09L124.39 18.00L137.97 18.00L137.97 22.09Z"/></g>
        
      </svg>
    