<svg version="1.2" xmlns="http://www.w3.org/2000/svg" viewBox="0 0 198 41" width="198" height="41">
	<style>
		.s0 { fill: #0047c1 } 
		.s1 { fill: #ffffff } 
	</style>
	<g id="logogram">
		<path class="s0" d="m0 33.5l4.61-8h7.63c5.02 0 9.25 3.71 9.92 8.68l0.84 6.32h-10l-1.44-3.36c-0.95-2.21-3.12-3.64-5.52-3.64z"/>
		<path class="s0" d="m46 33.5l-4.61-8h-7.63c-5.02 0-9.25 3.71-9.92 8.68l-0.84 6.32h10l1.44-3.36c0.95-2.21 3.12-3.64 5.52-3.64z"/>
		<path class="s0" d="m4.61 25.5l14.39-25h4l-0.4 9.52c-0.34 8.22-6.85 14.84-15.06 15.31z"/>
		<path class="s0" d="m41.39 25.5l-14.39-25h-4l0.4 9.52c0.34 8.22 6.85 14.84 15.06 15.31z"/>
	</g>
	<g id="logotype">
		<path class="s1" d="m64.6 33.44h-5.76l8.7-25.46h6.83l8.92 25.46h-5.79l-4.08-12.29q-0.74-2.37-1.5-5.2-0.76-2.83-1.6-6.18h1.13q-0.8 3.37-1.51 6.21-0.71 2.85-1.41 5.17zm13.26-5.91h-13.59v-4.09h13.59zm12.76 6.15q-1.98 0-3.47-0.86-1.48-0.87-2.3-2.48-0.81-1.62-0.81-3.86v-12.15h5.13v11.27q0 1.77 0.92 2.78 0.93 1.01 2.53 1.01 1.1 0 1.93-0.47 0.84-0.47 1.31-1.37 0.47-0.89 0.47-2.16v-11.06h5.13v19.11h-4.84l-0.07-4.77h0.29q-0.75 2.41-2.3 3.71-1.54 1.3-3.92 1.3zm11.09-19.35h11.33v3.92h-11.33zm2.63 13.97v-18.51h5.13v18.06q0 0.91 0.4 1.34 0.4 0.44 1.34 0.44 0.29 0 0.82-0.08 0.53-0.07 0.81-0.14l0.73 3.84q-0.85 0.26-1.7 0.36-0.84 0.1-1.61 0.1-2.87 0-4.4-1.4-1.52-1.4-1.52-4.01zm18.3 5.52q-2.87 0-4.97-1.24-2.1-1.24-3.24-3.46-1.13-2.21-1.13-5.15 0-2.97 1.13-5.18 1.14-2.22 3.24-3.46 2.1-1.24 4.97-1.24 2.89 0 4.99 1.24 2.09 1.24 3.23 3.46 1.13 2.21 1.13 5.18 0 2.94-1.13 5.15-1.14 2.22-3.23 3.46-2.1 1.24-4.99 1.24zm0-4.04q1.37 0 2.29-0.76 0.93-0.76 1.39-2.08 0.46-1.33 0.46-2.98 0-1.7-0.46-3.01-0.46-1.32-1.39-2.07-0.92-0.75-2.29-0.75-1.36 0-2.28 0.75-0.91 0.75-1.37 2.07-0.46 1.31-0.46 3.01 0 1.65 0.46 2.98 0.46 1.32 1.37 2.08 0.92 0.76 2.28 0.76zm10.85-8.85h11.59v4.08h-11.59zm27.57 8.99l-3.98-5.23h4.46l2.36 3.02 2.1 2.47 4.25 5.38h-4.87l-2.9-3.62zm-2.38 3.86q-3.36 0-6.06-1.54-2.69-1.53-4.25-4.46-1.56-2.92-1.56-7.05 0-4.16 1.56-7.09 1.56-2.93 4.25-4.47 2.7-1.54 6.06-1.54 3.39 0 6.07 1.54 2.68 1.54 4.25 4.47 1.56 2.93 1.56 7.09 0 4.13-1.56 7.05-1.57 2.93-4.25 4.46-2.68 1.54-6.07 1.54zm0-4.63q1.99 0 3.46-0.97 1.48-0.96 2.3-2.85 0.82-1.89 0.82-4.6 0-2.76-0.82-4.64-0.82-1.89-2.3-2.86-1.47-0.96-3.46-0.96-1.96 0-3.45 0.97-1.49 0.97-2.31 2.86-0.82 1.89-0.82 4.63 0 2.71 0.82 4.59 0.82 1.88 2.31 2.86 1.49 0.97 3.45 0.97zm18.03 4.29h-5.76l8.7-25.46h6.84l8.92 25.46h-5.8l-4.08-12.29q-0.74-2.37-1.5-5.2-0.76-2.83-1.59-6.18h1.12q-0.8 3.37-1.51 6.21-0.71 2.85-1.41 5.17zm13.26-5.91h-13.58v-4.09h13.58z"/>
	</g>
</svg>